<!-- sidebar-icons.svg — Shared SVG symbol sprite for all sidebar navigation icons.
     Include this file once per page (hidden) then reference via <use href="#icon-id"/>.
     All paths use currentColor so they inherit the CSS color property. -->
<svg xmlns="http://www.w3.org/2000/svg" aria-hidden="true">
  <symbol id="icon-adaptive" viewBox="0 0 24 24">
    <path d="M3 10.5 12 3l9 7.5" stroke="currentColor" stroke-linecap="round" stroke-linejoin="round" stroke-width="2.2"/><path d="M5 10.5V20a1 1 0 0 0 1 1h12a1 1 0 0 0 1-1v-9.5" stroke="currentColor" stroke-linecap="round" stroke-linejoin="round" stroke-width="2.0"/><path d="M9 21v-6h6v6" stroke="currentColor" stroke-linecap="round" stroke-linejoin="round" stroke-width="2.0"/>
  </symbol>
  <symbol id="icon-tutorials" viewBox="0 0 24 24">
    <path d="M2.5 5.5h7.5a3.8 3.8 0 0 1 3.8 3.8V21a2.6 2.6 0 0 0-2.6-2.6H2.5V5.5Z" stroke="currentColor" stroke-linejoin="round" stroke-width="2.0"/><path d="M21.5 5.5H14a3.8 3.8 0 0 0-3.8 3.8V21a2.6 2.6 0 0 1 2.6-2.6h8.7V5.5Z" stroke="currentColor" stroke-linejoin="round" stroke-width="2.0"/>
  </symbol>
  <symbol id="icon-insights" viewBox="0 0 24 24">
    <path d="M4 19V5" stroke="currentColor" stroke-linecap="round" stroke-width="2.2"/><path d="M8 19V11" stroke="currentColor" stroke-linecap="round" stroke-width="2.2"/><path d="M12 19V8" stroke="currentColor" stroke-linecap="round" stroke-width="2.2"/><path d="M16 19V14" stroke="currentColor" stroke-linecap="round" stroke-width="2.2"/><path d="M20 19V6" stroke="currentColor" stroke-linecap="round" stroke-width="2.2"/>
  </symbol>
  <symbol id="icon-interview" viewBox="0 0 24 24">
    <path d="M7 7h10" stroke="currentColor" stroke-linecap="round" stroke-width="2.2"/><path d="M7 12h6" stroke="currentColor" stroke-linecap="round" stroke-width="2.2"/><path d="M7 17h10" stroke="currentColor" stroke-linecap="round" stroke-width="2.2"/><path d="M6 4h12a2 2 0 0 1 2 2v14l-4-2H6a2 2 0 0 1-2-2V6a2 2 0 0 1 2-2Z" stroke="currentColor" stroke-linejoin="round" stroke-width="2.0"/>
  </symbol>
  <symbol id="icon-micro" viewBox="0 0 24 24">
    <path d="M12 2v4" stroke="currentColor" stroke-linecap="round" stroke-width="2.2"/><path d="M12 18v4" stroke="currentColor" stroke-linecap="round" stroke-width="2.2"/><path d="M4.9 4.9l2.8 2.8" stroke="currentColor" stroke-linecap="round" stroke-width="2.2"/><path d="M16.3 16.3l2.8 2.8" stroke="currentColor" stroke-linecap="round" stroke-width="2.2"/><path d="M2 12h4" stroke="currentColor" stroke-linecap="round" stroke-width="2.2"/><path d="M18 12h4" stroke="currentColor" stroke-linecap="round" stroke-width="2.2"/><path d="M4.9 19.1l2.8-2.8" stroke="currentColor" stroke-linecap="round" stroke-width="2.2"/><path d="M16.3 7.7l2.8-2.8" stroke="currentColor" stroke-linecap="round" stroke-width="2.2"/><path d="M12 8.2a3.8 3.8 0 1 0 0 7.6 3.8 3.8 0 0 0 0-7.6Z" stroke="currentColor" stroke-width="2.0"/>
  </symbol>
  <symbol id="icon-mcq" viewBox="0 0 24 24">
    <path d="M7 9h10" stroke="currentColor" stroke-linecap="round" stroke-width="2.2"/><path d="M7 13h6" stroke="currentColor" stroke-linecap="round" stroke-width="2.2"/><path d="M9 3h6" stroke="currentColor" stroke-linecap="round" stroke-width="2.2"/><path d="M7 21h10a2 2 0 0 0 2-2V7a2 2 0 0 0-2-2H7a2 2 0 0 0-2 2v12a2 2 0 0 0 2 2Z" stroke="currentColor" stroke-linejoin="round" stroke-width="2.0"/>
  </symbol>
  <symbol id="icon-settings" viewBox="0 0 24 24">
    <path d="M20 21a8 8 0 0 0-16 0" stroke="currentColor" stroke-linecap="round" stroke-width="2.0"/><path d="M12 11a4 4 0 1 0 0-8 4 4 0 0 0 0 8Z" stroke="currentColor" stroke-width="2.0"/>
  </symbol>
</svg>
